<mxfile host="app.diagrams.net" modified="2022-04-30T13:23:16.528Z" agent="5.0 (Macintosh; Intel Mac OS X 10_15_7) AppleWebKit/537.36 (KHTML, like Gecko) Chrome/100.0.4896.127 Safari/537.36" etag="J_uRQunuD-MmNQZwYcU5" version="17.4.6" type="github">
  <diagram id="KaXElKICPVnHxpYT3XY8" name="Page-1">
    <mxGraphModel dx="1131" dy="768" grid="1" gridSize="10" guides="1" tooltips="1" connect="1" arrows="1" fold="1" page="1" pageScale="1" pageWidth="850" pageHeight="1100" math="0" shadow="0">
      <root>
        <mxCell id="0" />
        <mxCell id="1" parent="0" />
        <mxCell id="tvu8QO3j4iiWlH6YwUfQ-2" value="" style="rounded=0;whiteSpace=wrap;html=1;" vertex="1" parent="1">
          <mxGeometry x="170" y="240" width="100" height="80" as="geometry" />
        </mxCell>
        <mxCell id="tvu8QO3j4iiWlH6YwUfQ-3" value="server" style="text;html=1;strokeColor=none;fillColor=none;align=center;verticalAlign=middle;whiteSpace=wrap;rounded=0;" vertex="1" parent="1">
          <mxGeometry x="190" y="265" width="60" height="30" as="geometry" />
        </mxCell>
        <mxCell id="tvu8QO3j4iiWlH6YwUfQ-4" value="" style="rounded=0;whiteSpace=wrap;html=1;" vertex="1" parent="1">
          <mxGeometry x="530" y="240" width="100" height="80" as="geometry" />
        </mxCell>
        <mxCell id="tvu8QO3j4iiWlH6YwUfQ-5" value="database" style="text;html=1;strokeColor=none;fillColor=none;align=center;verticalAlign=middle;whiteSpace=wrap;rounded=0;" vertex="1" parent="1">
          <mxGeometry x="550" y="265" width="60" height="30" as="geometry" />
        </mxCell>
        <mxCell id="tvu8QO3j4iiWlH6YwUfQ-6" value="" style="endArrow=none;html=1;rounded=0;exitX=1;exitY=0.5;exitDx=0;exitDy=0;entryX=0;entryY=0.5;entryDx=0;entryDy=0;" edge="1" parent="1" source="tvu8QO3j4iiWlH6YwUfQ-2" target="tvu8QO3j4iiWlH6YwUfQ-4">
          <mxGeometry width="50" height="50" relative="1" as="geometry">
            <mxPoint x="400" y="350" as="sourcePoint" />
            <mxPoint x="450" y="300" as="targetPoint" />
          </mxGeometry>
        </mxCell>
        <mxCell id="tvu8QO3j4iiWlH6YwUfQ-11" value="" style="rounded=0;whiteSpace=wrap;html=1;fillColor=#f8cecc;strokeColor=#b85450;" vertex="1" parent="1">
          <mxGeometry x="20" y="40" width="810" height="180" as="geometry" />
        </mxCell>
        <mxCell id="tvu8QO3j4iiWlH6YwUfQ-12" value="" style="rounded=0;whiteSpace=wrap;html=1;fillColor=#d5e8d4;strokeColor=#82b366;" vertex="1" parent="1">
          <mxGeometry x="40" y="360" width="300" height="180" as="geometry" />
        </mxCell>
        <mxCell id="tvu8QO3j4iiWlH6YwUfQ-13" value="" style="rounded=0;whiteSpace=wrap;html=1;" vertex="1" parent="1">
          <mxGeometry x="40" y="60" width="110" height="120" as="geometry" />
        </mxCell>
        <mxCell id="tvu8QO3j4iiWlH6YwUfQ-15" value="admin panel for website/app" style="text;html=1;strokeColor=none;fillColor=none;align=center;verticalAlign=middle;whiteSpace=wrap;rounded=0;" vertex="1" parent="1">
          <mxGeometry x="57.5" y="92.5" width="75" height="55" as="geometry" />
        </mxCell>
        <mxCell id="tvu8QO3j4iiWlH6YwUfQ-16" value="" style="rounded=0;whiteSpace=wrap;html=1;" vertex="1" parent="1">
          <mxGeometry x="180" y="60" width="110" height="120" as="geometry" />
        </mxCell>
        <mxCell id="tvu8QO3j4iiWlH6YwUfQ-17" value="admin for operations" style="text;html=1;strokeColor=none;fillColor=none;align=center;verticalAlign=middle;whiteSpace=wrap;rounded=0;" vertex="1" parent="1">
          <mxGeometry x="205" y="92.5" width="60" height="55" as="geometry" />
        </mxCell>
        <mxCell id="tvu8QO3j4iiWlH6YwUfQ-19" value="" style="rounded=0;whiteSpace=wrap;html=1;" vertex="1" parent="1">
          <mxGeometry x="310" y="60" width="160" height="120" as="geometry" />
        </mxCell>
        <mxCell id="tvu8QO3j4iiWlH6YwUfQ-20" value="access for internal employees (scheduling etc)" style="text;html=1;strokeColor=none;fillColor=none;align=center;verticalAlign=middle;whiteSpace=wrap;rounded=0;" vertex="1" parent="1">
          <mxGeometry x="340" y="70" width="100" height="100" as="geometry" />
        </mxCell>
        <mxCell id="tvu8QO3j4iiWlH6YwUfQ-21" value="" style="rounded=0;whiteSpace=wrap;html=1;" vertex="1" parent="1">
          <mxGeometry x="490" y="60" width="160" height="120" as="geometry" />
        </mxCell>
        <mxCell id="tvu8QO3j4iiWlH6YwUfQ-22" value="access for internal employees&lt;br&gt;absent/payroll etc" style="text;html=1;strokeColor=none;fillColor=none;align=center;verticalAlign=middle;whiteSpace=wrap;rounded=0;" vertex="1" parent="1">
          <mxGeometry x="520" y="70" width="100" height="100" as="geometry" />
        </mxCell>
        <mxCell id="tvu8QO3j4iiWlH6YwUfQ-24" value="" style="whiteSpace=wrap;html=1;aspect=fixed;" vertex="1" parent="1">
          <mxGeometry x="90" y="410" width="80" height="80" as="geometry" />
        </mxCell>
        <mxCell id="tvu8QO3j4iiWlH6YwUfQ-25" value="native app" style="text;html=1;strokeColor=none;fillColor=none;align=center;verticalAlign=middle;whiteSpace=wrap;rounded=0;" vertex="1" parent="1">
          <mxGeometry x="100" y="435" width="60" height="30" as="geometry" />
        </mxCell>
        <mxCell id="tvu8QO3j4iiWlH6YwUfQ-26" value="" style="whiteSpace=wrap;html=1;aspect=fixed;" vertex="1" parent="1">
          <mxGeometry x="200" y="410" width="80" height="80" as="geometry" />
        </mxCell>
        <mxCell id="tvu8QO3j4iiWlH6YwUfQ-27" value="webpage" style="text;html=1;strokeColor=none;fillColor=none;align=center;verticalAlign=middle;whiteSpace=wrap;rounded=0;" vertex="1" parent="1">
          <mxGeometry x="210" y="430" width="60" height="35" as="geometry" />
        </mxCell>
        <mxCell id="tvu8QO3j4iiWlH6YwUfQ-28" value="USER" style="shape=umlActor;verticalLabelPosition=bottom;verticalAlign=top;html=1;outlineConnect=0;" vertex="1" parent="1">
          <mxGeometry x="175" y="560" width="30" height="60" as="geometry" />
        </mxCell>
        <mxCell id="tvu8QO3j4iiWlH6YwUfQ-31" value="" style="rounded=1;whiteSpace=wrap;html=1;" vertex="1" parent="1">
          <mxGeometry x="365" y="370" width="120" height="60" as="geometry" />
        </mxCell>
        <mxCell id="tvu8QO3j4iiWlH6YwUfQ-32" value="" style="endArrow=none;dashed=1;html=1;dashPattern=1 3;strokeWidth=2;rounded=0;exitX=0.5;exitY=0;exitDx=0;exitDy=0;entryX=0.25;entryY=1;entryDx=0;entryDy=0;" edge="1" parent="1" source="tvu8QO3j4iiWlH6YwUfQ-12" target="tvu8QO3j4iiWlH6YwUfQ-2">
          <mxGeometry width="50" height="50" relative="1" as="geometry">
            <mxPoint x="80" y="350" as="sourcePoint" />
            <mxPoint x="130" y="300" as="targetPoint" />
          </mxGeometry>
        </mxCell>
        <mxCell id="tvu8QO3j4iiWlH6YwUfQ-33" value="" style="endArrow=none;dashed=1;html=1;dashPattern=1 3;strokeWidth=2;rounded=0;entryX=0.25;entryY=0;entryDx=0;entryDy=0;exitX=0.203;exitY=1;exitDx=0;exitDy=0;exitPerimeter=0;" edge="1" parent="1" source="tvu8QO3j4iiWlH6YwUfQ-11" target="tvu8QO3j4iiWlH6YwUfQ-2">
          <mxGeometry width="50" height="50" relative="1" as="geometry">
            <mxPoint x="50" y="330" as="sourcePoint" />
            <mxPoint x="100" y="280" as="targetPoint" />
          </mxGeometry>
        </mxCell>
        <mxCell id="tvu8QO3j4iiWlH6YwUfQ-34" value="Social Media" style="text;html=1;strokeColor=none;fillColor=none;align=center;verticalAlign=middle;whiteSpace=wrap;rounded=0;" vertex="1" parent="1">
          <mxGeometry x="395" y="385" width="60" height="30" as="geometry" />
        </mxCell>
      </root>
    </mxGraphModel>
  </diagram>
</mxfile>
